<svg xmlns="http://www.w3.org/2000/svg" width="141" height="141" viewBox="0 0 141 141">
  <g id="spinner-ux-glossary" transform="translate(-6764 268)">
    <circle id="Container" cx="70.5" cy="70.5" r="70.5" transform="translate(6764 -268)" fill="#536afb" opacity="0.08"/>
    <circle id="Container-2" data-name="Container" cx="50.5" cy="50.5" r="50.5" transform="translate(6784 -248)" fill="#536afb"/>
    <circle id="Stroke" cx="48.5" cy="48.5" r="48.5" opacity="0.1" fill="none" transform="translate(6786 -246)" stroke-linecap="round" stroke-linejoin="round" stroke-width="6" stroke="#fff"/>
    <g id="UX_Glossary" data-name="UX Glossary" transform="translate(0 4)">
      <path id="Glossary" d="M-24.532-7.383a2.43,2.43,0,0,0-.314-.69,2.015,2.015,0,0,0-.493-.511A2.2,2.2,0,0,0-26-8.906a2.819,2.819,0,0,0-.818-.112,2.608,2.608,0,0,0-1.468.415A2.72,2.72,0,0,0-29.268-7.4a4.744,4.744,0,0,0-.352,1.931,4.867,4.867,0,0,0,.346,1.939,2.692,2.692,0,0,0,.98,1.217,2.656,2.656,0,0,0,1.5.418,2.956,2.956,0,0,0,1.34-.28,1.989,1.989,0,0,0,.852-.791,2.374,2.374,0,0,0,.3-1.209l.469.069h-2.812V-5.838h4.565v1.374a4.78,4.78,0,0,1-.607,2.469A4.115,4.115,0,0,1-24.367-.407a5.191,5.191,0,0,1-2.44.557A5.24,5.24,0,0,1-29.5-.53,4.656,4.656,0,0,1-31.31-2.464a6.423,6.423,0,0,1-.647-2.98,6.325,6.325,0,0,1,.674-3.026,4.742,4.742,0,0,1,1.832-1.923,5.117,5.117,0,0,1,2.6-.666,5.376,5.376,0,0,1,1.726.269,4.676,4.676,0,0,1,1.42.759,4.128,4.128,0,0,1,1.015,1.164,3.988,3.988,0,0,1,.506,1.483Zm6.4-3.526V0h-2.264L-20.4-10.909ZM-12.622.16a4.16,4.16,0,0,1-2.144-.53,3.582,3.582,0,0,1-1.393-1.481,4.754,4.754,0,0,1-.49-2.208,4.779,4.779,0,0,1,.49-2.219,3.582,3.582,0,0,1,1.393-1.481,4.16,4.16,0,0,1,2.144-.53,4.16,4.16,0,0,1,2.144.53A3.582,3.582,0,0,1-9.085-6.278a4.779,4.779,0,0,1,.49,2.219,4.754,4.754,0,0,1-.49,2.208A3.582,3.582,0,0,1-10.478-.37,4.16,4.16,0,0,1-12.622.16Zm.011-1.758a1.4,1.4,0,0,0,.943-.322A1.982,1.982,0,0,0-11.1-2.8,3.866,3.866,0,0,0-10.9-4.075,3.866,3.866,0,0,0-11.1-5.348a2,2,0,0,0-.573-.884,1.4,1.4,0,0,0-.943-.325,1.435,1.435,0,0,0-.956.325,1.969,1.969,0,0,0-.581.884,3.866,3.866,0,0,0-.194,1.273A3.866,3.866,0,0,0-14.148-2.8a1.95,1.95,0,0,0,.581.882A1.442,1.442,0,0,0-12.611-1.6Zm12.3-4.251-2.077.128A1.172,1.172,0,0,0-2.815-6.4a1.45,1.45,0,0,0-.937-.28,1.678,1.678,0,0,0-.89.221A.667.667,0,0,0-5-5.87a.63.63,0,0,0,.234.5,1.86,1.86,0,0,0,.8.325l1.481.3a3.671,3.671,0,0,1,1.779.788A1.856,1.856,0,0,1-.12-2.536,2.237,2.237,0,0,1-.591-1.124,3.079,3.079,0,0,1-1.88-.178,4.894,4.894,0,0,1-3.763.16,4.4,4.4,0,0,1-6.349-.519,2.624,2.624,0,0,1-7.476-2.37l2.232-.117a1.137,1.137,0,0,0,.49.754,1.766,1.766,0,0,0,1,.258A1.772,1.772,0,0,0-2.8-1.707a.7.7,0,0,0,.37-.6q-.011-.6-1.049-.815L-4.893-3.4a3.378,3.378,0,0,1-1.782-.831,2.057,2.057,0,0,1-.583-1.507A2.195,2.195,0,0,1-6.829-7.1,2.721,2.721,0,0,1-5.62-7.979a4.955,4.955,0,0,1,1.83-.309,4.048,4.048,0,0,1,2.442.655A2.533,2.533,0,0,1-.306-5.849Zm8.427,0-2.077.128A1.172,1.172,0,0,0,5.612-6.4a1.45,1.45,0,0,0-.937-.28,1.678,1.678,0,0,0-.89.221.667.667,0,0,0-.362.589.63.63,0,0,0,.234.5,1.86,1.86,0,0,0,.8.325l1.481.3a3.671,3.671,0,0,1,1.779.788,1.856,1.856,0,0,1,.586,1.428,2.237,2.237,0,0,1-.471,1.412,3.079,3.079,0,0,1-1.289.945A4.894,4.894,0,0,1,4.664.16,4.4,4.4,0,0,1,2.077-.519,2.624,2.624,0,0,1,.951-2.37l2.232-.117a1.137,1.137,0,0,0,.49.754,1.766,1.766,0,0,0,1,.258,1.772,1.772,0,0,0,.961-.232.7.7,0,0,0,.37-.6q-.011-.6-1.049-.815L3.534-3.4a3.378,3.378,0,0,1-1.782-.831,2.057,2.057,0,0,1-.583-1.507A2.195,2.195,0,0,1,1.6-7.1a2.721,2.721,0,0,1,1.209-.879,4.955,4.955,0,0,1,1.83-.309,4.048,4.048,0,0,1,2.442.655A2.533,2.533,0,0,1,8.121-5.849Zm3.952,6a3.381,3.381,0,0,1-1.4-.274,2.206,2.206,0,0,1-.967-.815,2.414,2.414,0,0,1-.354-1.35,2.385,2.385,0,0,1,.25-1.145,2.027,2.027,0,0,1,.682-.746,3.3,3.3,0,0,1,.983-.426,7.4,7.4,0,0,1,1.159-.2q.714-.075,1.151-.141a1.607,1.607,0,0,0,.634-.2.445.445,0,0,0,.2-.394v-.032a.984.984,0,0,0-.317-.783,1.321,1.321,0,0,0-.9-.277,1.6,1.6,0,0,0-.975.269,1.263,1.263,0,0,0-.479.674l-2.1-.17a2.87,2.87,0,0,1,.629-1.292,3.049,3.049,0,0,1,1.212-.842,4.64,4.64,0,0,1,1.723-.3,5.266,5.266,0,0,1,1.308.16,3.448,3.448,0,0,1,1.113.5,2.424,2.424,0,0,1,.77.86,2.613,2.613,0,0,1,.282,1.254V0H14.529V-1.135h-.064a2.275,2.275,0,0,1-.527.674,2.378,2.378,0,0,1-.794.453A3.232,3.232,0,0,1,12.073.154Zm.65-1.566a1.887,1.887,0,0,0,.884-.2,1.546,1.546,0,0,0,.6-.541,1.4,1.4,0,0,0,.218-.772v-.868a1.16,1.16,0,0,1-.29.125q-.184.056-.413.1t-.458.08l-.415.061a2.807,2.807,0,0,0-.7.186,1.126,1.126,0,0,0-.463.344.855.855,0,0,0-.165.535.814.814,0,0,0,.338.706A1.441,1.441,0,0,0,12.723-1.412ZM18.444,0V-8.182h2.2v1.428h.085a2.126,2.126,0,0,1,.751-1.153A1.983,1.983,0,0,1,22.694-8.3a3.433,3.433,0,0,1,.368.021,2.588,2.588,0,0,1,.346.059v2.013a2.965,2.965,0,0,0-.442-.085,3.972,3.972,0,0,0-.517-.037,1.818,1.818,0,0,0-.892.216,1.6,1.6,0,0,0-.618.6,1.707,1.707,0,0,0-.226.884V0Zm7.788,3.052a4.625,4.625,0,0,1-.807-.067,3.33,3.33,0,0,1-.621-.162l.511-1.7a2.05,2.05,0,0,0,1.015.1.97.97,0,0,0,.653-.642l.133-.346L24.181-8.182h2.386l1.694,6.009h.085l1.71-6.009,2.4.011L29.278.884a3.818,3.818,0,0,1-.621,1.143,2.634,2.634,0,0,1-.988.756A3.483,3.483,0,0,1,26.231,3.052Z" transform="translate(6835 -182)" fill="#fff"/>
      <g id="UX" transform="translate(6812 -222)">
        <path id="X_Bottom" data-name="X Bottom" d="M615.921,1501.316l9.851,11.008h-7.394l-6.154-6.876Z" transform="translate(-578.862 -1491.324)" fill="#fff" style="isolation: isolate"/>
        <path id="X_Top" data-name="X Top" d="M621.369,1442.314h-7.333l-1.812,2.017,3.665,4.08Z" transform="translate(-578.862 -1442.314)" fill="#fff" style="isolation: isolate"/>
        <path id="X_Left" data-name="X Left" d="M545.348,1450.472l-7.13,8.115h7.258l3.494-3.977,3.633-4.135v0l.011-.011-3.62-4.111-3.518-4.021h-7.257Z" transform="translate(-517.389 -1442.326)" fill="#fff"/>
        <path id="U" d="M426.908,1449.176a2.286,2.286,0,0,1-4.573,0v-6.859h-7.113v6.859a9.4,9.4,0,0,0,18.8,0v-6.86h-7.113Z" transform="translate(-415.223 -1442.317)" fill="#fff"/>
      </g>
    </g>
  </g>
</svg>
