<svg xmlns="http://www.w3.org/2000/svg" width="177.469" height="67.833" viewBox="0 0 177.469 67.833">
  <g id="ux4web-logo" transform="translate(-361 -440.167)">
    <g id="web" transform="translate(-6511.451 1414.489) rotate(-8)">
      <path id="web-2" data-name="web" d="M23.36-6.08v-.04a.147.147,0,0,0,.04-.12h-.08v-.04c-.2-.24-.2.28-.52.32,0-.28.48-.4.24-.64a3.129,3.129,0,0,0-1.08.08c.04-.2.28-.16.24-.44-1.4.68-2.04.6-4.08.28,1.12-2.36.4-6.52-2.08-6.64-.36,0-.68.32-1.16.12,0,.4-.28.56-.48.8-.04-.2-.04-.36-.32-.32,0,.24-.04.52.08.64.32.12,0-.36.32-.24-.04.68.68.6.92,1a6.944,6.944,0,0,1,.08,1.8,13.62,13.62,0,0,1-4.56,7.28,14.963,14.963,0,0,1,.68-5.84c-.12-.32-.4-.48-.52-.76-.24.4-.24,1.08-.56,1.4-.04-.6.32-1.28.08-1.8-.24.08-.2.04-.4-.08-.16.16-.2.88-.44.72.04-.32-.04-.2-.16-.08-.04-.36.2-.52-.08-.64-.36-.2-.28.72-.72.48-.04.32-.12,1-.28.92A1.441,1.441,0,0,0,8.52-9C6.88-5.52,5.52-1.72,2.16.08,2.44-4.88,3.72-8.8,6.4-11.32c.04-.24-.28-.08-.16-.4-.16-.24-.48.28-.6.08a4.43,4.43,0,0,1-.08-.76c-.56.04-.8.2-1.32-.16-.28.12-.52.48-.92.24C1.2-10.52-.68-5.76-.96-2.24-1.2.6.08,2.16,2.16,2.32c3.12.2,4.56-2.28,5.96-3.8A4.391,4.391,0,0,0,12-.24c2.72-.44,3.84-3.28,5.12-4.96,2.88.24,4.16.44,6.36-.64C23.24-5.8,23.28-5.96,23.36-6.08ZM17.8-11.64c.8.84.24,2.84-.16,3.72A13.869,13.869,0,0,0,17.8-11.64Zm-.84,2.4c-.08-.6-.08-1.32-.16-2.08A5.078,5.078,0,0,1,16.96-9.24Zm.24-.6a3.749,3.749,0,0,1-.16-1.4C17.44-11,17.24-10.32,17.2-9.84ZM15.64-8.08a12.585,12.585,0,0,0,.16-3.08C16.36-10.36,15.96-8.8,15.64-8.08ZM-.56-1A18.111,18.111,0,0,1,2-10,29.048,29.048,0,0,0-.56-1ZM1.6-.32c-.56-3.56,1.04-6.4,2.16-8.84C2.88-6.68,1.68-3.84,1.6-.32ZM7.48-5.28c-.2-.28.24-.56.24-.92C7.96-5.92,7.44-5.64,7.48-5.28Zm15.64-.48a.235.235,0,0,1,.08-.2C23.16-5.8,23.16-5.68,23.12-5.76ZM.76-.52c-.52-1.6.4-3.76.68-5.36A46.455,46.455,0,0,0,.76-.52Zm9.6-2.04a3.177,3.177,0,0,1,0-2.88C10.48-4.72,10.28-3.56,10.36-2.56Zm-1-1a1.882,1.882,0,0,1,.16,1C9.08-2.64,9.36-3.2,9.36-3.56ZM-.2-2.4c0-.32.16-.68.16-1C.16-3.32-.28-1.2-.2-2.4Zm.64,0A4.3,4.3,0,0,0,.6-3.32C.84-3.36.32-.96.44-2.4ZM37.16-6.72a.645.645,0,0,1-.36-.12.569.569,0,0,0-.24.08.312.312,0,0,1,.16-.16.55.55,0,0,1-.2-.32c-.04,0-.04,0-.08.04-1.28,1.36-3.12,3.72-4.84,4.84-1.64,1-5.36,1-5.84-1.4a9.755,9.755,0,0,0,4.72-2.8c2.08-2.4,3.16-5.32.8-6.84a5.2,5.2,0,0,0-5.52.4,10.258,10.258,0,0,0-3.28,6.6A6.239,6.239,0,0,0,29.16-.04c3.64-.36,6.72-4.56,8.68-6.6l-.08-.12a.338.338,0,0,1-.24.08C37.4-6.56,37.28-6.64,37.16-6.72Zm-7.68-5.2c.2,1.12-.6,2.24-1.24,3.04a6.95,6.95,0,0,1-2.48,2C26.52-9.04,27.48-11,29.48-11.92Zm-4.2.08c-.8,1.52-2.08,3.32-2.4,5.6C22.84-8.6,24.16-10.32,25.28-11.84Zm2.4,4.36c.64-1.12,1.96-2.32,2.28-4.04C30-9.68,28.6-8.56,27.68-7.48Zm3.04-2.36c-.2-.52.16-1,.24-1.52.2.4-.28.8-.24,1.32a2.844,2.844,0,0,0,.4-1.12,1.356,1.356,0,0,1-.52,1.48C30.76-9.8,30.4-10.04,30.72-9.84Zm1.24-1.32c.08-.04.16,0,.16.08-.2,2.24-1.6,3.32-2.72,4.68C30.16-7.76,31.6-9.16,31.96-11.16Zm-5.2.64c-.6,1.04-1.2,2.76-1.84,4.04A6.774,6.774,0,0,1,26.76-10.52ZM24.04-6.24A8.332,8.332,0,0,1,25.2-9.76C24.8-8.92,24.56-7.2,24.04-6.24Zm6.52-3.44h-.08C30.48-9.8,30.56-9.72,30.56-9.68ZM23.28-7.04a5.345,5.345,0,0,1,.44-1.48c.12.04-.28.96-.36,1.4C23.4-7,23.28-6.96,23.28-7.04Zm.92-1c.2.28-.2.68-.16,1.08C23.8-7.28,24.2-7.68,24.2-8.04Zm12.68.76a3.856,3.856,0,0,0,.72.4h.08A.147.147,0,0,1,37.64-7c0,.04-.04.04-.04.08,0-.04-.04-.12-.16-.24-.64-.28-.36-.2-.64-.28,0-.12,0-.04-.12.04C36.84-7.36,36.92-7.32,36.88-7.28Zm-.36.04a.312.312,0,0,0,.16-.16c-.2,0-.56,0-.44.16a.361.361,0,0,0,.2.04c0-.04.04-.08.08-.12ZM37.64-7c0-.08.04-.16.04-.24A.594.594,0,0,0,37.64-7Zm.04.12v.04H37.6v-.04c-.08.04-.6-.24-.88-.04,0,.04.04.04.08.08a1.271,1.271,0,0,1,.36.12,1.107,1.107,0,0,0,.36.04c0-.04.04-.08.04-.16a.3.3,0,0,0,.16.04.039.039,0,0,0,.04.04h.04C38.08-6.68,37.92-6.76,37.68-6.88ZM51.84-35.2c-1.4-1.92-4.6-1.36-6.2.08-2.44,2.24-4.12,6.48-5.52,11.24A84.479,84.479,0,0,0,37.4-9.76,29.781,29.781,0,0,0,38.04.64c.52.12.64.64,1.08.84.56-.2.52-.12,1.16.16.2-.32.4-.16.6-.48a.354.354,0,0,0,.16.4c.76-.28.76-1.36,1.16-2,2.36.84,5.24.44,6.76-1.64,1.6-2.2,2.44-6.48,1-8.68a4.143,4.143,0,0,0-5.48-.96c3.52-5.2,7.56-10.92,8.04-19.08C52.6-32.52,52.68-34.04,51.84-35.2ZM41.04-12.56c1.4-8.16,2.88-16.92,7.76-21.88h.16c1.04,4.44-.8,9.88-2.24,13.12A35.635,35.635,0,0,1,41.04-12.56Zm9.08-10.32c.76-3.2,1.92-7.32,1.4-11.56C52.8-31.08,51.08-25.92,50.12-22.88Zm.64-8.84c-.16.28-.04-.52-.08-.76-.04-.6-.12-1.36-.16-1.8A7.246,7.246,0,0,1,50.76-31.72Zm-2.72,8.68c.84-3,1.92-6.84,1.48-11.08C50.4-30.32,49.16-25.96,48.04-23.04Zm2.72-6.44a1.372,1.372,0,0,1-.16-.64c.04.2.2-.24.16-.68a12.55,12.55,0,0,0,0-3.24C51.4-32.88,50.88-30.92,50.76-29.48Zm-.72-2.72c-.04-.24,0-.8-.08-1.36C50.16-33.28,50.16-31.44,50.04-32.2Zm.72,1.32a.578.578,0,0,0-.08-.28C50.76-31.32,50.76-31.08,50.76-30.88ZM37.64-4.24c-.4-7.48,1.72-15.4,3.56-21.8a6.044,6.044,0,0,1-.6,2.32c-.68,2.52-1.24,5.2-1.8,7.84A74.969,74.969,0,0,0,37.64-4.24Zm2.4-6.92a65.853,65.853,0,0,1,2.8-13.36c-.04-.44.24.08,0,.08-.52,2.12-1,4.32-1.48,6.6C40.88-15.64,40.68-13.28,40.04-11.16Zm7.44-10.48c-.16-.4.32-.88.4-1.32C47.96-22.64,47.56-22.08,47.48-21.64ZM39.04-2.08c-.72-4.64.2-10.04.92-14.28-.04-.32.16-.12.08.08A70.281,70.281,0,0,0,39.04-2.08Zm-.32-6.04c-.04-1.52.24-2.76.32-4.2A27.568,27.568,0,0,1,38.72-8.12Zm-.68,0c-.04-1.52.28-2.68.36-4.12A32.543,32.543,0,0,1,38.04-8.12Zm9-2.12c1.28,3.16-.32,7.16-2.72,8.24-.52,0-.68-.12-.88-.08-.24-.24-.32-.64-.6-.84C43.6-6,44.84-8.6,47.04-10.24Zm-6.24.56c.28.32-.24.76,0,1,.44-.12.48-.64.96-.76-.2,1.32-.96,2.08-1.32,3.24A9.618,9.618,0,0,1,40.8-9.68Zm-1,5.72a16.9,16.9,0,0,1,0-5.12c.08-.04.12,0,.16.08C40-7.56,39.84-5.6,39.8-3.96ZM48.96-9c.16-.2.04.52.08.72C48.88-8.08,49-8.8,48.96-9Zm1,0c.72,2.44-.56,4.76-1.4,6.44C49.08-4.32,50.04-6.36,49.96-9ZM46.72-3.4a16.031,16.031,0,0,0,1.24-5.36A8.376,8.376,0,0,1,46.72-3.4Zm2.16-2.24c-.04-.8.32-1.84.24-2.96C49.56-7.68,49.08-6.44,48.88-5.64ZM40.44-4.56C40.48-6,41.4-7.24,42-8.36,41.64-7.28,40.84-5.92,40.44-4.56ZM38.72-6.88c-.16.16-.04-.72-.08-.96C38.8-8,38.68-7.12,38.72-6.88Zm10.16-.96c.24-.04,0,.76,0,.8C48.76-6.12,48.84-7.16,48.88-7.84Zm-.68,0c.24,0,0,.88,0,1.24C48-6.92,48.32-7.36,48.2-7.84ZM38.04-6.72c-.16.2-.04-.6-.08-.8C38.12-7.72,38.04-6.92,38.04-6.72Zm4.64,1.44A11.391,11.391,0,0,1,43.84-7.6,44.587,44.587,0,0,0,42.2-2.8C41.76-3.44,42.4-4.56,42.68-5.28ZM41.2-2.72A13.244,13.244,0,0,1,42-5.96,21.231,21.231,0,0,1,41.2-2.72ZM41.04.56c-.08-.68.28-.96.32-1.56.12-.04.16.08.24.08A2.192,2.192,0,0,1,41.04.56Z" transform="translate(7059 52)" fill="#b2bcfd"/>
      <path id="_" data-name="/" d="M1.952,5.76a1.3,1.3,0,0,0,.928-.928c-.256-.064-.1-.128-.128-.384-.16-.1-.192.256-.256.064C2.912,2.976,3.552,1.7,3.936.16A134.82,134.82,0,0,1,16.224-21.792c-.128-.1-.16-.352-.32-.448-.128.1-.224.576-.384.448,0-.288.16-.448.128-.8-.064-.1-.32.032-.256-.192-.352,0-.416.608-.608.544.1-.128.064-.416.064-.608-.512-.064-.544.352-.8.544-.032-.128.1-.416-.128-.352C10.88-18.72,8.576-14.3,5.984-9.952A56.948,56.948,0,0,0,2.56-3.1,36.028,36.028,0,0,0,0,4.7c.288-.128.256.16.448.064-.16.16.032.544.128.672.32,0,.448-.48.608-.416V5.7c.416.1.48-.512.7-.384C1.792,5.408,1.888,5.664,1.952,5.76ZM.384,3.968C2.688-4.9,7.52-11.808,11.744-18.944,7.744-11.808,2.976-4.8.384,3.968ZM2.176,3.84c2.048-8.288,6.688-14.624,10.5-21.408.1.032,0,.064,0,.128-1.824,3.456-3.9,6.72-5.76,10.176A91.906,91.906,0,0,0,2.176,3.84Zm-.544-.384a50.173,50.173,0,0,1,4.7-11.424A98.394,98.394,0,0,0,1.632,3.456Zm-.256-1.92a35.14,35.14,0,0,1,2.176-5.28C3.2-2.88,2.784-2.048,2.5-1.12c-.32.64-.64,1.568-.864,2.176C1.632,1.088,1.216,2.176,1.376,1.536Zm.192,1.056c.8-1.824,1.28-4.16,2.3-5.888,0,.032.032-.384.128-.128C3.168-1.76,2.464.384,1.7,2.4,1.664,2.528,1.5,3.2,1.568,2.592Z" transform="translate(7069.172 59.974) rotate(60)" fill="#b2bcfd"/>
    </g>
    <g id="Web_Illustration" data-name="Web Illustration" transform="translate(435.149 449.217)" opacity="0.04">
      <g id="Ellipse_47" data-name="Ellipse 47" transform="translate(-21.149 -5.217)" fill="#4059fb" stroke="#4059fb" stroke-width="1">
        <circle cx="32" cy="32" r="32" stroke="none"/>
        <circle cx="32" cy="32" r="31.5" fill="none"/>
      </g>
    </g>
    <g id="_4_as_Bolt" data-name="4 as Bolt" transform="translate(2)" opacity="0.64">
      <path id="Icon-4" d="M18.685,10H11.4l2.689-8.113A1.509,1.509,0,0,0,12.625,0H3.535a1.512,1.512,0,0,0-1.5,1.3l-2.02,15a1.508,1.508,0,0,0,1.5,1.7H9.008L6.1,30.156A1.5,1.5,0,0,0,7.569,32a1.518,1.518,0,0,0,1.313-.75l11.11-19A1.5,1.5,0,0,0,18.685,10Z" transform="translate(435.801 460)" fill="#4059fb"/>
    </g>
    <g id="UX" transform="translate(361 460)">
      <path id="X_Bottom" data-name="X Bottom" d="M616.857,1500.316l16.011,17.774H621.6l-10.378-11.477Z" transform="translate(-561.386 -1486.09)" fill="#1f1f1f" style="isolation: isolate"/>
      <path id="X_Top" data-name="X Top" d="M626.159,1442.314H614.985l-3.761,4.073,5.585,6.217Z" transform="translate(-561.386 -1442.314)" fill="#1f1f1f" style="isolation: isolate"/>
      <path id="X_Left" data-name="X Left" d="M549.082,1454.737,538.218,1467.1h11.06l5.324-6.061,5.536-6.3v0l.017-.017-5.516-6.264-5.36-6.127H538.219Z" transform="translate(-506.478 -1442.325)" fill="#1f1f1f"/>
      <path id="U" d="M433.029,1452.768a3.484,3.484,0,1,1-6.968,0v-10.451H415.223v10.451a14.322,14.322,0,0,0,28.645,0v-10.454H433.029Z" transform="translate(-415.223 -1442.316)" fill="#1f1f1f"/>
    </g>
  </g>
</svg>
